<?xml version="1.0" standalone="no"?>
<!DOCTYPE svg PUBLIC "-//W3C//DTD SVG 20010904//EN"
 "http://www.w3.org/TR/2001/REC-SVG-20010904/DTD/svg10.dtd">
<svg version="1.0" xmlns="http://www.w3.org/2000/svg"
 width="16.000000pt" height="16.000000pt" viewBox="0 0 16.000000 16.000000"
 preserveAspectRatio="xMidYMid meet">

<g transform="translate(0.000000,16.000000) scale(0.100000,-0.100000)"
fill="#000000" stroke="none">
<path d="M42 144 c-12 -8 -27 -24 -33 -36 -11 -21 -11 -21 20 1 23 17 29 18
25 6 -4 -8 -15 -20 -25 -26 -25 -13 -24 -41 1 -64 11 -10 20 -15 20 -10 0 4 7
2 15 -5 19 -16 50 -5 75 27 27 35 25 59 -9 94 -33 33 -56 36 -89 13z m76 -36
c-6 -17 -36 -34 -45 -24 -4 4 1 14 11 22 24 17 39 18 34 2z"/>
</g>
</svg>
