<?xml version="1.0" standalone="no"?>
<!DOCTYPE svg PUBLIC "-//W3C//DTD SVG 20010904//EN"
 "http://www.w3.org/TR/2001/REC-SVG-20010904/DTD/svg10.dtd">
<svg version="1.0" xmlns="http://www.w3.org/2000/svg"
 width="16.000000pt" height="16.000000pt" viewBox="0 0 16.000000 16.000000"
 preserveAspectRatio="xMidYMid meet">

<g transform="translate(0.000000,16.000000) scale(0.100000,-0.100000)"
fill="#000000" stroke="none">
<path d="M42 144 c-12 -8 -20 -20 -17 -25 4 -5 -1 -12 -9 -15 -26 -10 -18 -19
15 -19 20 0 36 -7 43 -18 9 -15 7 -21 -14 -37 l-25 -18 27 -7 c42 -11 91 24
54 38 -9 4 -12 14 -9 26 6 23 23 27 41 9 9 -9 12 -8 12 6 0 23 -53 76 -77 76
-10 0 -29 -7 -41 -16z"/>
</g>
</svg>
