<?xml version="1.0" standalone="no"?>
<!DOCTYPE svg PUBLIC "-//W3C//DTD SVG 20010904//EN"
 "http://www.w3.org/TR/2001/REC-SVG-20010904/DTD/svg10.dtd">
<svg version="1.0" xmlns="http://www.w3.org/2000/svg"
 width="16.000000pt" height="16.000000pt" viewBox="0 0 16.000000 16.000000"
 preserveAspectRatio="xMidYMid meet">

<g transform="translate(0.000000,16.000000) scale(0.100000,-0.100000)"
fill="#000000" stroke="none">
<path d="M39 143 c-1 -5 0 -18 1 -31 1 -14 -6 -25 -19 -30 -18 -6 -19 -10 -8
-32 7 -13 24 -31 38 -39 58 -33 131 40 98 98 -12 21 -22 25 -46 23 -17 -2 -34
2 -38 7 -7 13 -24 15 -26 4z m72 -66 c-10 -9 -11 -8 -5 6 3 10 9 15 12 12 3
-3 0 -11 -7 -18z"/>
</g>
</svg>
